{"glyphs":{"0":{"ha":1190,"x_min":0,"x_max":992,"o":"m 794 198 l 794 0 l 198 0 l 198 198 l 0 198 l 0 1190 l 198 1190 l 198 1389 l 794 1389 l 794 1190 l 992 1190 l 992 198 l 794 198 m 397 198 l 794 198 l 794 1190 l 397 1190 l 397 198 z "},"1":{"ha":794,"x_min":0,"x_max":595,"o":"m 198 1389 l 595 1389 l 595 0 l 198 0 l 198 992 l 0 992 l 0 1190 l 198 1190 l 198 1389 z "},"2":{"ha":1190,"x_min":0,"x_max":992,"o":"m 595 794 l 595 1190 l 397 1190 l 397 992 l 0 992 l 0 1190 l 198 1190 l 198 1389 l 794 1389 l 794 1190 l 992 1190 l 992 794 l 794 794 l 794 595 l 397 595 l 397 198 l 794 198 l 794 397 l 992 397 l 992 0 l 0 0 l 0 595 l 198 595 l 198 794 l 595 794 z "},"3":{"ha":1190,"x_min":0,"x_max":992,"o":"m 595 198 l 595 595 l 198 595 l 198 794 l 595 794 l 595 1190 l 397 1190 l 397 992 l 0 992 l 0 1190 l 198 1190 l 198 1389 l 794 1389 l 794 1190 l 992 1190 l 992 794 l 794 794 l 794 595 l 992 595 l 992 198 l 794 198 l 794 0 l 198 0 l 198 198 l 0 198 l 0 397 l 397 397 l 397 198 l 595 198 z "},"4":{"ha":1190,"x_min":0,"x_max":992,"o":"m 992 0 l 595 0 l 595 595 l 198 595 l 198 794 l 0 794 l 0 1389 l 397 1389 l 397 794 l 595 794 l 595 1389 l 992 1389 l 992 0 z "},"5":{"ha":1190,"x_min":0,"x_max":992,"o":"m 595 198 l 595 595 l 0 595 l 0 1389 l 992 1389 l 992 1190 l 397 1190 l 397 794 l 794 794 l 794 595 l 992 595 l 992 198 l 794 198 l 794 0 l 198 0 l 198 198 l 0 198 l 0 397 l 198 397 l 198 198 l 595 198 z "},"6":{"ha":1190,"x_min":0,"x_max":992,"o":"m 794 595 l 397 595 l 397 198 l 794 198 l 794 595 m 794 1190 l 992 1190 l 992 992 l 794 992 l 794 1190 l 397 1190 l 397 794 l 794 794 l 794 595 l 992 595 l 992 198 l 794 198 l 794 0 l 198 0 l 198 198 l 0 198 l 0 1190 l 198 1190 l 198 1389 l 794 1389 l 794 1190 z "},"7":{"ha":1190,"x_min":0,"x_max":992,"o":"m 198 595 l 397 595 l 397 794 l 595 794 l 595 992 l 794 992 l 794 1190 l 397 1190 l 397 992 l 0 992 l 0 1389 l 992 1389 l 992 794 l 595 794 l 595 0 l 198 0 l 198 595 z "},"8":{"ha":1190,"x_min":0,"x_max":992,"o":"m 794 794 l 794 1190 l 397 1190 l 397 794 l 794 794 m 794 198 l 794 595 l 397 595 l 397 198 l 794 198 m 794 595 l 992 595 l 992 198 l 794 198 l 794 0 l 198 0 l 198 198 l 0 198 l 0 595 l 198 595 l 198 794 l 0 794 l 0 1190 l 198 1190 l 198 1389 l 794 1389 l 794 1190 l 992 1190 l 992 794 l 794 794 l 794 595 z "},"9":{"ha":1190,"x_min":0,"x_max":992,"o":"m 397 794 l 794 794 l 794 1190 l 397 1190 l 397 794 m 397 397 l 397 198 l 794 198 l 794 595 l 198 595 l 198 794 l 0 794 l 0 1190 l 198 1190 l 198 1389 l 794 1389 l 794 1190 l 992 1190 l 992 198 l 794 198 l 794 0 l 198 0 l 198 198 l 0 198 l 0 397 l 397 397 z "}," ":{"ha":794,"x_min":0,"x_max":0,"o":""},"!":{"ha":595,"x_min":0,"x_max":397,"o":"m 0 1389 l 397 1389 l 397 595 l 0 595 l 0 1389 m 0 397 l 397 397 l 397 0 l 0 0 l 0 397 z "},"\"":{"ha":794,"x_min":0,"x_max":595,"o":"m 0 1389 l 198 1389 l 198 992 l 0 992 l 0 1389 m 397 1389 l 595 1389 l 595 992 l 397 992 l 397 1389 z "},"#":{"ha":1389,"x_min":0,"x_max":1190,"o":"m 794 595 l 794 794 l 595 794 l 595 595 l 794 595 m 992 397 l 992 0 l 794 0 l 794 397 l 595 397 l 595 0 l 198 0 l 198 397 l 0 397 l 0 595 l 198 595 l 198 794 l 0 794 l 0 992 l 198 992 l 198 1389 l 595 1389 l 595 992 l 794 992 l 794 1389 l 992 1389 l 992 992 l 1190 992 l 1190 794 l 992 794 l 992 595 l 1190 595 l 1190 397 l 992 397 z "},"(":{"ha":794,"x_min":0,"x_max":595,"o":"m 397 198 l 595 198 l 595 0 l 397 0 l 397 198 l 198 198 l 198 397 l 0 397 l 0 992 l 198 992 l 198 1190 l 397 1190 l 397 1389 l 595 1389 l 595 1190 l 397 1190 l 397 992 l 198 992 l 198 397 l 397 397 l 397 198 z "},")":{"ha":794,"x_min":0,"x_max":595,"o":"m 397 992 l 595 992 l 595 397 l 397 397 l 397 198 l 198 198 l 198 0 l 0 0 l 0 198 l 198 198 l 198 397 l 397 397 l 397 992 l 198 992 l 198 1190 l 0 1190 l 0 1389 l 198 1389 l 198 1190 l 397 1190 l 397 992 z "},"*":{"ha":1190,"x_min":0,"x_max":992,"o":"m 794 397 l 992 397 l 992 198 l 794 198 l 794 397 l 595 397 l 595 0 l 397 0 l 397 397 l 198 397 l 198 198 l 0 198 l 0 397 l 198 397 l 198 595 l 0 595 l 0 794 l 198 794 l 198 992 l 0 992 l 0 1190 l 198 1190 l 198 992 l 397 992 l 397 1389 l 595 1389 l 595 992 l 794 992 l 794 1190 l 992 1190 l 992 992 l 794 992 l 794 794 l 992 794 l 992 595 l 794 595 l 794 397 z "},"+":{"ha":1190,"x_min":0,"x_max":992,"o":"m 397 595 l 0 595 l 0 794 l 397 794 l 397 595 m 595 794 l 992 794 l 992 595 l 595 595 l 595 794 m 595 595 l 595 198 l 397 198 l 397 595 l 595 595 m 397 794 l 397 1190 l 595 1190 l 595 794 l 397 794 z "},",":{"ha":595,"x_min":0,"x_max":397,"o":"m 397 397 l 397 0 l 198 0 l 198 198 l 0 198 l 0 397 l 397 397 z "},"-":{"ha":1190,"x_min":0,"x_max":992,"o":"m 0 794 l 992 794 l 992 595 l 0 595 l 0 794 z "},".":{"ha":397,"x_min":0,"x_max":198,"o":"m 0 198 l 198 198 l 198 0 l 0 0 l 0 198 z "},"/":{"ha":1587,"x_min":0,"x_max":1389,"o":"m 1190 1389 l 1389 1389 l 1389 1190 l 1190 1190 l 1190 992 l 992 992 l 992 794 l 794 794 l 794 595 l 595 595 l 595 397 l 397 397 l 397 198 l 198 198 l 198 0 l 0 0 l 0 198 l 198 198 l 198 397 l 397 397 l 397 595 l 595 595 l 595 794 l 794 794 l 794 992 l 992 992 l 992 1190 l 1190 1190 l 1190 1389 z "},":":{"ha":397,"x_min":0,"x_max":198,"o":"m 0 992 l 198 992 l 198 794 l 0 794 l 0 992 m 0 595 l 198 595 l 198 397 l 0 397 l 0 595 z "},";":{"ha":595,"x_min":0,"x_max":397,"o":"m 0 1190 l 397 1190 l 397 794 l 0 794 l 0 1190 m 397 0 l 198 0 l 198 198 l 0 198 l 0 595 l 397 595 l 397 0 z "},"<":{"ha":992,"x_min":0,"x_max":794,"o":"m 595 198 l 794 198 l 794 0 l 595 0 l 595 198 l 397 198 l 397 397 l 198 397 l 198 595 l 0 595 l 0 794 l 198 794 l 198 992 l 397 992 l 397 1190 l 595 1190 l 595 1389 l 794 1389 l 794 1190 l 595 1190 l 595 992 l 397 992 l 397 794 l 198 794 l 198 595 l 397 595 l 397 397 l 595 397 l 595 198 z "},"=":{"ha":1190,"x_min":0,"x_max":992,"o":"m 0 992 l 992 992 l 992 794 l 0 794 l 0 992 m 0 595 l 992 595 l 992 397 l 0 397 l 0 595 z "},">":{"ha":992,"x_min":0,"x_max":794,"o":"m 0 198 l 198 198 l 198 397 l 397 397 l 397 595 l 595 595 l 595 794 l 397 794 l 397 992 l 198 992 l 198 1190 l 0 1190 l 0 1389 l 198 1389 l 198 1190 l 397 1190 l 397 992 l 595 992 l 595 794 l 794 794 l 794 595 l 595 595 l 595 397 l 397 397 l 397 198 l 198 198 l 198 0 l 0 0 l 0 198 z "},"?":{"ha":1190,"x_min":0,"x_max":992,"o":"m 794 794 l 794 397 l 397 397 l 397 794 l 595 794 l 595 1190 l 198 1190 l 198 992 l 0 992 l 0 1190 l 198 1190 l 198 1389 l 794 1389 l 794 1190 l 992 1190 l 992 794 l 794 794 m 794 198 l 794 0 l 397 0 l 397 198 l 794 198 z "},"@":{"ha":1190,"x_min":0,"x_max":992,"o":"m 794 198 l 794 0 l 198 0 l 198 198 l 0 198 l 0 1190 l 198 1190 l 198 1389 l 794 1389 l 794 1190 l 992 1190 l 992 198 l 794 198 m 397 794 l 794 794 l 794 1190 l 397 1190 l 397 794 m 595 595 l 595 198 l 794 198 l 794 595 l 595 595 z "},"A":{"ha":1190,"x_min":0,"x_max":992,"o":"m 794 595 l 397 595 l 397 0 l 0 0 l 0 1389 l 794 1389 l 794 1190 l 992 1190 l 992 0 l 794 0 l 794 595 m 397 794 l 794 794 l 794 1190 l 397 1190 l 397 794 z "},"B":{"ha":1190,"x_min":0,"x_max":992,"o":"m 794 595 l 397 595 l 397 198 l 794 198 l 794 595 m 794 794 l 794 595 l 992 595 l 992 198 l 794 198 l 794 0 l 0 0 l 0 1389 l 794 1389 l 794 1190 l 992 1190 l 992 794 l 794 794 m 397 794 l 794 794 l 794 1190 l 397 1190 l 397 794 z "},"C":{"ha":1190,"x_min":0,"x_max":992,"o":"m 794 397 l 992 397 l 992 198 l 794 198 l 794 0 l 198 0 l 198 198 l 0 198 l 0 1190 l 198 1190 l 198 1389 l 794 1389 l 794 1190 l 992 1190 l 992 992 l 794 992 l 794 1190 l 397 1190 l 397 198 l 794 198 l 794 397 z "},"D":{"ha":1190,"x_min":0,"x_max":992,"o":"m 794 198 l 794 0 l 0 0 l 0 1389 l 794 1389 l 794 1190 l 992 1190 l 992 198 l 794 198 m 397 198 l 794 198 l 794 1190 l 397 1190 l 397 198 z "},"E":{"ha":1190,"x_min":0,"x_max":992,"o":"m 397 794 l 992 794 l 992 595 l 397 595 l 397 198 l 992 198 l 992 0 l 198 0 l 198 198 l 0 198 l 0 1190 l 198 1190 l 198 1389 l 992 1389 l 992 1190 l 397 1190 l 397 794 z "},"F":{"ha":1190,"x_min":0,"x_max":992,"o":"m 397 794 l 992 794 l 992 595 l 397 595 l 397 0 l 0 0 l 0 1190 l 198 1190 l 198 1389 l 992 1389 l 992 1190 l 397 1190 l 397 794 z "},"G":{"ha":1190,"x_min":0,"x_max":992,"o":"m 595 794 l 992 794 l 992 198 l 794 198 l 794 0 l 198 0 l 198 198 l 0 198 l 0 1190 l 198 1190 l 198 1389 l 794 1389 l 794 1190 l 992 1190 l 992 992 l 794 992 l 794 1190 l 397 1190 l 397 198 l 794 198 l 794 595 l 595 595 l 595 794 z "},"H":{"ha":1190,"x_min":0,"x_max":992,"o":"m 397 794 l 794 794 l 794 1389 l 992 1389 l 992 0 l 794 0 l 794 595 l 397 595 l 397 0 l 0 0 l 0 1389 l 397 1389 l 397 794 z "},"I":{"ha":595,"x_min":0,"x_max":397,"o":"m 0 1389 l 397 1389 l 397 0 l 0 0 l 0 1389 z "},"J":{"ha":1190,"x_min":0,"x_max":992,"o":"m 198 1389 l 992 1389 l 992 198 l 794 198 l 794 0 l 198 0 l 198 198 l 0 198 l 0 397 l 397 397 l 397 198 l 595 198 l 595 1190 l 198 1190 l 198 1389 z "},"K":{"ha":1190,"x_min":0,"x_max":992,"o":"m 794 595 l 992 595 l 992 0 l 794 0 l 794 595 l 397 595 l 397 0 l 0 0 l 0 1389 l 397 1389 l 397 794 l 794 794 l 794 1389 l 992 1389 l 992 794 l 794 794 l 794 595 z "},"L":{"ha":1190,"x_min":0,"x_max":992,"o":"m 397 198 l 992 198 l 992 0 l 0 0 l 0 1389 l 397 1389 l 397 198 z "},"M":{"ha":1389,"x_min":0,"x_max":1190,"o":"m 992 1389 l 1190 1389 l 1190 0 l 992 0 l 992 794 l 794 794 l 794 595 l 595 595 l 595 794 l 397 794 l 397 0 l 0 0 l 0 1389 l 397 1389 l 397 992 l 595 992 l 595 794 l 794 794 l 794 992 l 992 992 l 992 1389 z "},"N":{"ha":1190,"x_min":0,"x_max":992,"o":"m 794 1389 l 992 1389 l 992 0 l 794 0 l 794 595 l 595 595 l 595 794 l 397 794 l 397 0 l 0 0 l 0 1389 l 397 1389 l 397 992 l 595 992 l 595 794 l 794 794 l 794 1389 z "},"O":{"ha":1190,"x_min":0,"x_max":992,"o":"m 794 198 l 794 0 l 198 0 l 198 198 l 0 198 l 0 1190 l 198 1190 l 198 1389 l 794 1389 l 794 1190 l 992 1190 l 992 198 l 794 198 m 397 198 l 794 198 l 794 1190 l 397 1190 l 397 198 z "},"P":{"ha":1190,"x_min":0,"x_max":992,"o":"m 794 794 l 794 595 l 397 595 l 397 0 l 0 0 l 0 1389 l 794 1389 l 794 1190 l 992 1190 l 992 794 l 794 794 m 397 794 l 794 794 l 794 1190 l 397 1190 l 397 794 z "},"Q":{"ha":1190,"x_min":0,"x_max":992,"o":"m 992 0 l 198 0 l 198 198 l 0 198 l 0 1190 l 198 1190 l 198 1389 l 794 1389 l 794 1190 l 992 1190 l 992 0 m 595 397 l 794 397 l 794 1190 l 397 1190 l 397 198 l 595 198 l 595 397 z "},"R":{"ha":1190,"x_min":0,"x_max":992,"o":"m 397 794 l 794 794 l 794 1190 l 397 1190 l 397 794 m 794 595 l 992 595 l 992 0 l 794 0 l 794 595 l 397 595 l 397 0 l 0 0 l 0 1389 l 794 1389 l 794 1190 l 992 1190 l 992 794 l 794 794 l 794 595 z "},"S":{"ha":1190,"x_min":0,"x_max":992,"o":"m 0 397 l 397 397 l 397 198 l 794 198 l 794 595 l 198 595 l 198 794 l 0 794 l 0 1190 l 198 1190 l 198 1389 l 794 1389 l 794 1190 l 992 1190 l 992 992 l 794 992 l 794 1190 l 397 1190 l 397 794 l 794 794 l 794 595 l 992 595 l 992 198 l 794 198 l 794 0 l 198 0 l 198 198 l 0 198 l 0 397 z "},"T":{"ha":992,"x_min":0,"x_max":794,"o":"m 595 1190 l 595 0 l 198 0 l 198 1190 l 0 1190 l 0 1389 l 794 1389 l 794 1190 l 595 1190 z "},"U":{"ha":1190,"x_min":0,"x_max":992,"o":"m 794 1389 l 992 1389 l 992 198 l 794 198 l 794 0 l 198 0 l 198 198 l 0 198 l 0 1389 l 397 1389 l 397 198 l 794 198 l 794 1389 z "},"V":{"ha":1190,"x_min":0,"x_max":992,"o":"m 794 1389 l 992 1389 l 992 595 l 794 595 l 794 397 l 595 397 l 595 198 l 397 198 l 397 0 l 0 0 l 0 1389 l 397 1389 l 397 397 l 595 397 l 595 595 l 794 595 l 794 1389 z "},"W":{"ha":1389,"x_min":0,"x_max":1190,"o":"m 992 1389 l 1190 1389 l 1190 0 l 992 0 l 992 397 l 794 397 l 794 595 l 595 595 l 595 397 l 397 397 l 397 0 l 0 0 l 0 1389 l 397 1389 l 397 595 l 595 595 l 595 794 l 794 794 l 794 595 l 992 595 l 992 1389 z "},"X":{"ha":1190,"x_min":0,"x_max":992,"o":"m 794 198 l 992 198 l 992 0 l 794 0 l 794 198 l 595 198 l 595 397 l 397 397 l 397 198 l 198 198 l 198 0 l 0 0 l 0 397 l 198 397 l 198 992 l 0 992 l 0 1389 l 198 1389 l 198 1190 l 397 1190 l 397 992 l 595 992 l 595 1190 l 794 1190 l 794 1389 l 992 1389 l 992 1190 l 794 1190 l 794 992 l 595 992 l 595 397 l 794 397 l 794 198 z "},"Y":{"ha":1190,"x_min":0,"x_max":992,"o":"m 0 397 l 397 397 l 397 198 l 794 198 l 794 595 l 198 595 l 198 794 l 0 794 l 0 1389 l 397 1389 l 397 794 l 794 794 l 794 1389 l 992 1389 l 992 198 l 794 198 l 794 0 l 198 0 l 198 198 l 0 198 l 0 397 z "},"Z":{"ha":1190,"x_min":0,"x_max":992,"o":"m 794 397 l 992 397 l 992 0 l 0 0 l 0 397 l 198 397 l 198 794 l 397 794 l 397 992 l 595 992 l 595 1190 l 198 1190 l 198 992 l 0 992 l 0 1389 l 992 1389 l 992 992 l 794 992 l 794 794 l 595 794 l 595 397 l 397 397 l 397 198 l 794 198 l 794 397 z "},"[":{"ha":794,"x_min":0,"x_max":595,"o":"m 397 198 l 595 198 l 595 0 l 0 0 l 0 1389 l 595 1389 l 595 1190 l 397 1190 l 397 198 z "},"]":{"ha":794,"x_min":0,"x_max":595,"o":"m 0 198 l 198 198 l 198 1190 l 0 1190 l 0 1389 l 595 1389 l 595 0 l 0 0 l 0 198 z "},"^":{"ha":794,"x_min":0,"x_max":595,"o":"m 397 1190 l 595 1190 l 595 992 l 397 992 l 397 1190 l 198 1190 l 198 992 l 0 992 l 0 1190 l 198 1190 l 198 1389 l 397 1389 l 397 1190 z "},"_":{"ha":1190,"x_min":0,"x_max":992,"o":"m 0 198 l 992 198 l 992 0 l 0 0 l 0 198 z "},"a":{"ha":1190,"x_min":0,"x_max":992,"o":"m 794 595 l 397 595 l 397 0 l 0 0 l 0 1389 l 794 1389 l 794 1190 l 992 1190 l 992 0 l 794 0 l 794 595 m 397 794 l 794 794 l 794 1190 l 397 1190 l 397 794 z "},"b":{"ha":1190,"x_min":0,"x_max":992,"o":"m 794 595 l 397 595 l 397 198 l 794 198 l 794 595 m 794 794 l 794 595 l 992 595 l 992 198 l 794 198 l 794 0 l 0 0 l 0 1389 l 794 1389 l 794 1190 l 992 1190 l 992 794 l 794 794 m 397 794 l 794 794 l 794 1190 l 397 1190 l 397 794 z "},"c":{"ha":1190,"x_min":0,"x_max":992,"o":"m 794 397 l 992 397 l 992 198 l 794 198 l 794 0 l 198 0 l 198 198 l 0 198 l 0 1190 l 198 1190 l 198 1389 l 794 1389 l 794 1190 l 992 1190 l 992 992 l 794 992 l 794 1190 l 397 1190 l 397 198 l 794 198 l 794 397 z "},"d":{"ha":1190,"x_min":0,"x_max":992,"o":"m 794 198 l 794 0 l 0 0 l 0 1389 l 794 1389 l 794 1190 l 992 1190 l 992 198 l 794 198 m 397 198 l 794 198 l 794 1190 l 397 1190 l 397 198 z "},"e":{"ha":1190,"x_min":0,"x_max":992,"o":"m 397 794 l 992 794 l 992 595 l 397 595 l 397 198 l 992 198 l 992 0 l 198 0 l 198 198 l 0 198 l 0 1190 l 198 1190 l 198 1389 l 992 1389 l 992 1190 l 397 1190 l 397 794 z "},"f":{"ha":1190,"x_min":0,"x_max":992,"o":"m 397 794 l 992 794 l 992 595 l 397 595 l 397 0 l 0 0 l 0 1190 l 198 1190 l 198 1389 l 992 1389 l 992 1190 l 397 1190 l 397 794 z "},"g":{"ha":1190,"x_min":0,"x_max":992,"o":"m 595 794 l 992 794 l 992 198 l 794 198 l 794 0 l 198 0 l 198 198 l 0 198 l 0 1190 l 198 1190 l 198 1389 l 794 1389 l 794 1190 l 992 1190 l 992 992 l 794 992 l 794 1190 l 397 1190 l 397 198 l 794 198 l 794 595 l 595 595 l 595 794 z "},"h":{"ha":1190,"x_min":0,"x_max":992,"o":"m 397 794 l 794 794 l 794 1389 l 992 1389 l 992 0 l 794 0 l 794 595 l 397 595 l 397 0 l 0 0 l 0 1389 l 397 1389 l 397 794 z "},"i":{"ha":595,"x_min":0,"x_max":397,"o":"m 0 1389 l 397 1389 l 397 0 l 0 0 l 0 1389 z "},"j":{"ha":1190,"x_min":0,"x_max":992,"o":"m 198 1389 l 992 1389 l 992 198 l 794 198 l 794 0 l 198 0 l 198 198 l 0 198 l 0 397 l 397 397 l 397 198 l 595 198 l 595 1190 l 198 1190 l 198 1389 z "},"k":{"ha":1190,"x_min":0,"x_max":992,"o":"m 794 595 l 992 595 l 992 0 l 794 0 l 794 595 l 397 595 l 397 0 l 0 0 l 0 1389 l 397 1389 l 397 794 l 794 794 l 794 1389 l 992 1389 l 992 794 l 794 794 l 794 595 z "},"l":{"ha":1190,"x_min":0,"x_max":992,"o":"m 397 198 l 992 198 l 992 0 l 0 0 l 0 1389 l 397 1389 l 397 198 z "},"m":{"ha":1389,"x_min":0,"x_max":1190,"o":"m 992 1389 l 1190 1389 l 1190 0 l 992 0 l 992 794 l 794 794 l 794 595 l 595 595 l 595 794 l 397 794 l 397 0 l 0 0 l 0 1389 l 397 1389 l 397 992 l 595 992 l 595 794 l 794 794 l 794 992 l 992 992 l 992 1389 z "},"n":{"ha":1190,"x_min":0,"x_max":992,"o":"m 794 1389 l 992 1389 l 992 0 l 794 0 l 794 595 l 595 595 l 595 794 l 397 794 l 397 0 l 0 0 l 0 1389 l 397 1389 l 397 992 l 595 992 l 595 794 l 794 794 l 794 1389 z "},"o":{"ha":1190,"x_min":0,"x_max":992,"o":"m 794 198 l 794 0 l 198 0 l 198 198 l 0 198 l 0 1190 l 198 1190 l 198 1389 l 794 1389 l 794 1190 l 992 1190 l 992 198 l 794 198 m 397 198 l 794 198 l 794 1190 l 397 1190 l 397 198 z "},"p":{"ha":1190,"x_min":0,"x_max":992,"o":"m 794 794 l 794 595 l 397 595 l 397 0 l 0 0 l 0 1389 l 794 1389 l 794 1190 l 992 1190 l 992 794 l 794 794 m 397 794 l 794 794 l 794 1190 l 397 1190 l 397 794 z "},"q":{"ha":1190,"x_min":0,"x_max":992,"o":"m 992 0 l 198 0 l 198 198 l 0 198 l 0 1190 l 198 1190 l 198 1389 l 794 1389 l 794 1190 l 992 1190 l 992 0 m 595 397 l 794 397 l 794 1190 l 397 1190 l 397 198 l 595 198 l 595 397 z "},"r":{"ha":1190,"x_min":0,"x_max":992,"o":"m 397 794 l 794 794 l 794 1190 l 397 1190 l 397 794 m 794 595 l 992 595 l 992 0 l 794 0 l 794 595 l 397 595 l 397 0 l 0 0 l 0 1389 l 794 1389 l 794 1190 l 992 1190 l 992 794 l 794 794 l 794 595 z "},"s":{"ha":1190,"x_min":0,"x_max":992,"o":"m 0 397 l 397 397 l 397 198 l 794 198 l 794 595 l 198 595 l 198 794 l 0 794 l 0 1190 l 198 1190 l 198 1389 l 794 1389 l 794 1190 l 992 1190 l 992 992 l 794 992 l 794 1190 l 397 1190 l 397 794 l 794 794 l 794 595 l 992 595 l 992 198 l 794 198 l 794 0 l 198 0 l 198 198 l 0 198 l 0 397 z "},"t":{"ha":992,"x_min":0,"x_max":794,"o":"m 595 1190 l 595 0 l 198 0 l 198 1190 l 0 1190 l 0 1389 l 794 1389 l 794 1190 l 595 1190 z "},"u":{"ha":1190,"x_min":0,"x_max":992,"o":"m 794 1389 l 992 1389 l 992 198 l 794 198 l 794 0 l 198 0 l 198 198 l 0 198 l 0 1389 l 397 1389 l 397 198 l 794 198 l 794 1389 z "},"v":{"ha":1190,"x_min":0,"x_max":992,"o":"m 794 1389 l 992 1389 l 992 595 l 794 595 l 794 397 l 595 397 l 595 198 l 397 198 l 397 0 l 0 0 l 0 1389 l 397 1389 l 397 397 l 595 397 l 595 595 l 794 595 l 794 1389 z "},"w":{"ha":1389,"x_min":0,"x_max":1190,"o":"m 992 1389 l 1190 1389 l 1190 0 l 992 0 l 992 397 l 794 397 l 794 595 l 595 595 l 595 397 l 397 397 l 397 0 l 0 0 l 0 1389 l 397 1389 l 397 595 l 595 595 l 595 794 l 794 794 l 794 595 l 992 595 l 992 1389 z "},"x":{"ha":1190,"x_min":0,"x_max":992,"o":"m 794 198 l 992 198 l 992 0 l 794 0 l 794 198 l 595 198 l 595 397 l 397 397 l 397 198 l 198 198 l 198 0 l 0 0 l 0 397 l 198 397 l 198 992 l 0 992 l 0 1389 l 198 1389 l 198 1190 l 397 1190 l 397 992 l 595 992 l 595 1190 l 794 1190 l 794 1389 l 992 1389 l 992 1190 l 794 1190 l 794 992 l 595 992 l 595 397 l 794 397 l 794 198 z "},"y":{"ha":1190,"x_min":0,"x_max":992,"o":"m 0 397 l 397 397 l 397 198 l 794 198 l 794 595 l 198 595 l 198 794 l 0 794 l 0 1389 l 397 1389 l 397 794 l 794 794 l 794 1389 l 992 1389 l 992 198 l 794 198 l 794 0 l 198 0 l 198 198 l 0 198 l 0 397 z "},"z":{"ha":1190,"x_min":0,"x_max":992,"o":"m 794 397 l 992 397 l 992 0 l 0 0 l 0 397 l 198 397 l 198 794 l 397 794 l 397 992 l 595 992 l 595 1190 l 198 1190 l 198 992 l 0 992 l 0 1389 l 992 1389 l 992 992 l 794 992 l 794 794 l 595 794 l 595 397 l 397 397 l 397 198 l 794 198 l 794 397 z "},"|":{"ha":397,"x_min":0,"x_max":198,"o":"m 0 1389 l 198 1389 l 198 0 l 0 0 l 0 1389 z "},"~":{"ha":1190,"x_min":0,"x_max":992,"o":"m 794 1389 l 992 1389 l 992 1190 l 794 1190 l 794 992 l 397 992 l 397 1190 l 198 1190 l 198 992 l 0 992 l 0 1190 l 198 1190 l 198 1389 l 595 1389 l 595 1190 l 794 1190 l 794 1389 z "}," ":{"ha":794,"x_min":0,"x_max":0,"o":""}}}
